# xmcd
#
# Track frame offsets: 
#        150
#        6347
#        25432
#        42194
#        60193
#        77077
#        98744
#        123307
#        140343
#        156269
#        178027
#
# Disc length: 2642 seconds
#
# Revision: 0
# Processed by: cddbd v1.5.2PL0 Copyright (c) Steve Scherf et al.
# Submitted via: ExactAudioCopy v0.99pb5
#
DISCID=850a500b
DTITLE=Анатолий Жемаев - Мужская Территория
DYEAR=2007
DGENRE=
TTITLE0=Музыка для Взрослых
TTITLE1=неспетая
TTITLE2=Он Блюз не Играет
TTITLE3=Последний День Любви
TTITLE4=Падает Снег
TTITLE5=Быть Собой
TTITLE6=Мир без Тебя
TTITLE7=Красивая Жизнь
TTITLE8=Игрок
TTITLE9=Только Ты
TTITLE10=Волшебная Ночь
EXTD=
EXTT0=
EXTT1=
EXTT2=
EXTT3=
EXTT4=
EXTT5=
EXTT6=
EXTT7=
EXTT8=
EXTT9=
EXTT10=
PLAYORDER=
